<?xml version="1.0" standalone="no"?>
<!DOCTYPE svg PUBLIC "-//W3C//DTD SVG 20010904//EN"
 "http://www.w3.org/TR/2001/REC-SVG-20010904/DTD/svg10.dtd">
<svg version="1.0" xmlns="http://www.w3.org/2000/svg"
 width="150.000000pt" height="150.000000pt" viewBox="0 0 150.000000 150.000000"
 preserveAspectRatio="xMidYMid meet">
<metadata>
Created by potrace 1.14, written by Peter Selinger 2001-2017
</metadata>
<g transform="translate(0.000000,150.000000) scale(0.100000,-0.100000)"
fill="#000000" stroke="none">
<path d="M359 1470 c-19 -10 -41 -25 -47 -33 -10 -12 -6 -15 26 -20 21 -4 128
-59 252 -130 118 -68 238 -136 265 -152 62 -35 66 -39 -140 149 -220 202 -273
230 -356 186z"/>
<path d="M1010 724 c0 -17 -8 -38 -17 -46 -40 -35 -408 -240 -440 -245 l-35
-6 93 -93 c52 -52 97 -94 102 -94 7 0 458 257 499 285 15 10 4 25 -92 120
-106 105 -110 108 -110 79z"/>
</g>
</svg>
